<?xml version="1.0" encoding="utf-8"?>
<?xml-stylesheet type="text/xsl" href="rss1.xsl"?>
<rss version="2.0" xmlns:atom="http://www.w3.org/2005/Atom" xmlns:content="http://purl.org/rss/1.0/modules/content/" xmlns:dc="http://purl.org/dc/elements/1.1/" xmlns:media="http://search.yahoo.com/mrss/">
<channel>
 <title>Getty</title>
 <link>http://www.gettyimg.com/</link>
 <atom:link href="http://www.gettyimg.com/" rel="self" type="application/rss+xml" />

 
                <item>
                <title><![CDATA[【HD Live Performances】HDTV - Music Bank E1208 240531 XG -WOKE UP 1080p 60fps]]></title>
                <link><![CDATA[https://sharemania.us/threads/music-bank-e1208-240531-xg-woke-up-1080p-60fps.245921/]]></link>
                <description><![CDATA[<article>
<blockquote class="messageText SelectQuoteContainer ugc baseHtml">
240531 KBS Music Bank XG - WOKE UP.mp4<br>
<br>
<div class="bbCodeBlock bbCodeVfcHH HiddenContent">
<div class="attribution type">Hidden Content:</div>
<blockquote>You must reply before you can see the hidden data contained here.</blockquote>
</div>
<div class="messageTextEndMarker">&nbsp;</div>
</blockquote>
</article>]]></description>
                <author><![CDATA[Sergiote12]]></author>
                </item>

                
                <item>
                <title><![CDATA[【HD Live Performances】HDTV - Music Bank E1208 240531 aespa - Armageddon HDMI 1080i]]></title>
                <link><![CDATA[https://sharemania.us/threads/music-bank-e1208-240531-aespa-armageddon-hdmi-1080i.245920/]]></link>
                <description><![CDATA[<article>
<blockquote class="messageText SelectQuoteContainer ugc baseHtml">
240531.KBS2.뮤직뱅크.aespa - Armageddon.HDMI.1080i.264C.AC3<br>
<br>
<div class="bbCodeBlock bbCodeVfcHH HiddenContent">
<div class="attribution type">Hidden Content:</div>
<blockquote>You must reply before you can see the hidden data contained here.</blockquote>
</div>
<div class="messageTextEndMarker">&nbsp;</div>
</blockquote>
</article>]]></description>
                <author><![CDATA[Sergiote12]]></author>
                </item>

                
                <item>
                <title><![CDATA[【Requests】[REQ AUD] - Lithe Albums Lossless]]></title>
                <link><![CDATA[https://sharemania.us/threads/lithe-albums-lossless.245923/]]></link>
                <description><![CDATA[<article>
<blockquote class="messageText SelectQuoteContainer ugc baseHtml">
Thanks
<div class="messageTextEndMarker">&nbsp;</div>
</blockquote>
</article>]]></description>
                <author><![CDATA[Lordfunkbox69]]></author>
                </item>

                
                <item>
                <title><![CDATA[【Albums (lossless)】PACK - Lorde - Pure Heroine | Extended + Japanese Edition + Vinyl Rip | .ALAC &amp; .FLAC | 16-24bits ／ 44.1kHz &amp; 96.0kHz]]></title>
                <link><![CDATA[https://sharemania.us/threads/lorde-pure-heroine-extended-japanese-edition-vinyl-rip-alac-flac-16-24bits-%EF%BC%8F-44-1khz-96-0khz.245919/]]></link>
                <description><![CDATA[<article>
<blockquote class="messageText SelectQuoteContainer ugc baseHtml">
Hello,<br>
<br>
Can someone please provide me with the below albums in a lossless format?<br>
<br>
<a href="https://www.qobuz.com/us-en/album/fall-back-selfish-game-lithe/x550lnsdumi4a" target="_blank" class="externalLink" rel="nofollow">https://www.qobuz.com/us-en/album/fall-back-selfish-game-lithe/x550lnsdumi4a</a><br>
<a href="https://www.qobuz.com/us-en/album/from-me-to-you-pack-lithe/k27b46rht4kgc" target="_blank" class="externalLink" rel="nofollow">https://www.qobuz.com/us-en/album/from-me-to-you-pack-lithe/k27b46rht4kgc</a><br>
<a href="https://www.qobuz.com/us-en/album/rest-assured-lithe/f4y4qggktmtdb" target="_blank" class="externalLink" rel="nofollow">https://www.qobuz.com/us-en/album/rest-assured-lithe/f4y4qggktmtdb</a><br>
<a href="https://www.qobuz.com/us-en/album/out-of-touch-lithe/v6x9anqmy9rna" target="_blank" class="externalLink" rel="nofollow">https://www.qobuz.com/us-en/album/out-of-touch-lithe/v6x9anqmy9rna</a><br>
<a href="https://www.qobuz.com/us-en/album/autumn-lithe/k59qvbmywl5bc" target="_blank" class="externalLink" rel="nofollow">https://www.qobuz.com/us-en/album/autumn-lithe/k59qvbmywl5bc</a><br>
<br>
Thank you.
<div class="messageTextEndMarker">&nbsp;</div>
</blockquote>
</article>]]></description>
                <author><![CDATA[Nuric]]></author>
                </item>

                
                <item>
                <title><![CDATA[【HD Live Performances】HDTV - Music Bank E1208 240531 NewJeans - How Sweet HDMI 1080i]]></title>
                <link><![CDATA[https://sharemania.us/threads/music-bank-e1208-240531-newjeans-how-sweet-hdmi-1080i.245922/]]></link>
                <description><![CDATA[<article>
<blockquote class="messageText SelectQuoteContainer ugc baseHtml">
<div style="text-align: center"><br>
<span style="font-family: 'Times New Roman'"><span style="font-size: 18px"><span style="color: rgb(0, 0, 0)">Pure Heroine (Extended) | WEB ALAC | .M4A 16bits ／ 44.1kHz</span></span></span><br>
<br>
<img src="https://i.imgur.com/GPKL7EG.png" class="bbCodeImage LbImage" alt="[​IMG]" data-url="https://i.imgur.com/GPKL7EG.png" style=""><br>
<br>
<span style="font-family: 'Book Antiqua'"><span style="font-size: 12px"><span style="color: #000000">
<div class="ToggleTriggerAnchor bbCodeSpoilerContainer">
<button type="button" class="button bbCodeSpoilerButton ToggleTrigger Tooltip JsOnly" data-target="> .SpoilerTarget"><span>Spoiler: <span class="SpoilerTitle">Extended</span></span></button>
<div class="SpoilerTarget bbCodeSpoilerText">
<div class="bbCodeBlock bbCodeVfcHH HiddenContent">
<div class="attribution type">Hidden Content:</div>
<blockquote>You must reply before you can see the hidden data contained here.</blockquote>
</div></div>
</div><br>
================================================================================================<br>
</span></span></span><br>
<span style="font-family: 'Times New Roman'"><span style="font-size: 18px"><span style="color: rgb(0, 0, 0)">Pure Heroine (Japanese Edition) | CD Rip | WEB ALAC | .M4A 16bits ／ 44.1kHz</span></span></span><br>
<span style="font-family: 'Book Antiqua'"><span style="font-size: 18px"><span style="color: #000000"><br>
<img src="https://i.imgur.com/sulql43.jpeg" class="bbCodeImage LbImage" alt="[​IMG]" data-url="https://i.imgur.com/sulql43.jpeg" style=""> <br>
</span></span><br>
<span style="font-size: 12px"><span style="color: #000000"><i><b>**IT'S NOT MY RIP!</b></i></span></span><br>
<br>
<span style="color: #000000"><span style="font-size: 12px">
<div class="ToggleTriggerAnchor bbCodeSpoilerContainer">
<button type="button" class="button bbCodeSpoilerButton ToggleTrigger Tooltip JsOnly" data-target="> .SpoilerTarget"><span>Spoiler: <span class="SpoilerTitle">.log</span></span></button>
<div class="SpoilerTarget bbCodeSpoilerText">Exact Audio Copy V1.0 beta 3 from 29. August 2011<br>
<br>
Отчёт EAC об извлечении, выполненном 15. сентября 2015, 13:52<br>
<br>
Lorde / Pure Heroine (Japanese Edition)<br>
<br>
Дисковод: MATSHITADVD-RAM UJ8B0 Adapter: 1 ID: 0<br>
<br>
Режим чтения : Достоверность<br>
Использование точного потока : Да<br>
Отключение кэша аудио : Да<br>
Использование указателей C2 : Нет<br>
<br>
Коррекция смещения при чтении : 102<br>
Способность читать области Lead-in и Lead-out : Нет<br>
Заполнение пропущенных сэмплов тишиной : Да<br>
Удаление блоков с тишиной в начале и конце : Нет<br>
При вычислениях CRC использовались нулевые сэмплы : Да<br>
Интерфейс : Встроенный Win32-интерфейс для Win NT/2000<br>
Обработка зазоров : Добавлено к предыдущему треку<br>
<br>
Выходной формат : Пользовательский кодировщик<br>
Выбранный битрейт : 896 kBit/s<br>
Качество : Высокий<br>
Добавление ID3-тега : Нет<br>
Утилита сжатия : D:\Programs\Foobar2000 и iTunesEncode\qaac_2.49\qaac_2.49\x64\refalac64.exe<br>
Дополнительные параметры : -s --ignorelength --artist "%artist%" --title "%title%" --album "%albumtitle%" --date "%year%" --track "%tracknr%" --genre "%genre%" -o %dest% %source%<br>
<br>
<br>
TOC извлечённого CD<br>
<br>
Трек | Старт | Длительность | Начальный сектор | Конечный сектор <br>
---------------------------------------------------------------------<br>
1 | 0:00.00 | 3:19.18 | 0 | 14942 <br>
2 | 3:19.18 | 3:54.21 | 14943 | 32513 <br>
3 | 7:13.39 | 3:10.14 | 32514 | 46777 <br>
4 | 10:23.53 | 4:18.73 | 46778 | 66200 <br>
5 | 14:42.51 | 4:06.57 | 66201 | 84707 <br>
6 | 18:49.33 | 3:13.04 | 84708 | 99186 <br>
7 | 22:02.37 | 3:31.55 | 99187 | 115066 <br>
8 | 25:34.17 | 3:08.20 | 115067 | 129186 <br>
9 | 28:42.37 | 3:37.45 | 129187 | 145506 <br>
10 | 32:20.07 | 4:57.43 | 145507 | 167824 <br>
11 | 37:17.50 | 3:43.15 | 167825 | 184564 <br>
12 | 41:00.65 | 3:44.49 | 184565 | 201413 <br>
13 | 44:45.39 | 3:42.05 | 201414 | 218068 <br>
<br>
<br>
Трек 1<br>
<br>
Имя файла F:\Maxim\Music\ALAC\Lorde\2014 — Pure Heroine (Japanese Edition)\01. Tennis Court.wav<br>
<br>
Длина предзазора 0:00:02.00<br>
<br>
Пиковый уровень 99.0 %<br>
Скорость извлечения 1.1 X<br>
Качество трека 100.0 %<br>
CRC теста CA28D601<br>
CRC копии CA28D601<br>
Точное извлечение (достоверность 9) [5A7C6965] (AR v2)<br>
Копирование... OK<br>
<br>
Трек 2<br>
<br>
Имя файла F:\Maxim\Music\ALAC\Lorde\2014 — Pure Heroine (Japanese Edition)\02. 400 Lux.wav<br>
<br>
Пиковый уровень 99.0 %<br>
Скорость извлечения 1.2 X<br>
Качество трека 100.0 %<br>
CRC теста 7B7A6F42<br>
CRC копии 7B7A6F42<br>
Точное извлечение (достоверность 9) [C89FBD40] (AR v2)<br>
Копирование... OK<br>
<br>
Трек 3<br>
<br>
Имя файла F:\Maxim\Music\ALAC\Lorde\2014 — Pure Heroine (Japanese Edition)\03. Royals.wav<br>
<br>
Пиковый уровень 99.0 %<br>
Скорость извлечения 1.3 X<br>
Качество трека 100.0 %<br>
CRC теста CC571AAB<br>
CRC копии CC571AAB<br>
Точное извлечение (достоверность 9) [3B957263] (AR v2)<br>
Копирование... OK<br>
<br>
Трек 4<br>
<br>
Имя файла F:\Maxim\Music\ALAC\Lorde\2014 — Pure Heroine (Japanese Edition)\04. Ribs.wav<br>
<br>
Пиковый уровень 99.0 %<br>
Скорость извлечения 1.3 X<br>
Качество трека 99.9 %<br>
CRC теста EB5C5C30<br>
CRC копии EB5C5C30<br>
Точное извлечение (достоверность 9) [5BA36C7F] (AR v2)<br>
Копирование... OK<br>
<br>
Трек 5<br>
<br>
Имя файла F:\Maxim\Music\ALAC\Lorde\2014 — Pure Heroine (Japanese Edition)\05. Buzzcut Season.wav<br>
<br>
Пиковый уровень 99.0 %<br>
Скорость извлечения 1.6 X<br>
Качество трека 100.0 %<br>
CRC теста 732E8B7F<br>
CRC копии 732E8B7F<br>
Точное извлечение (достоверность 9) [BBD16245] (AR v2)<br>
Копирование... OK<br>
<br>
Трек 6<br>
<br>
Имя файла F:\Maxim\Music\ALAC\Lorde\2014 — Pure Heroine (Japanese Edition)\06. Team.wav<br>
<br>
Пиковый уровень 99.0 %<br>
Скорость извлечения 1.6 X<br>
Качество трека 100.0 %<br>
CRC теста 1E46D21E<br>
CRC копии 1E46D21E<br>
Точное извлечение (достоверность 9) [7422D140] (AR v2)<br>
Копирование... OK<br>
<br>
Трек 7<br>
<br>
Имя файла F:\Maxim\Music\ALAC\Lorde\2014 — Pure Heroine (Japanese Edition)\07. Glory and Gore.wav<br>
<br>
Пиковый уровень 99.0 %<br>
Скорость извлечения 1.7 X<br>
Качество трека 100.0 %<br>
CRC теста 2F623FC4<br>
CRC копии 2F623FC4<br>
Точное извлечение (достоверность 9) [CE22E494] (AR v2)<br>
Копирование... OK<br>
<br>
Трек 8<br>
<br>
Имя файла F:\Maxim\Music\ALAC\Lorde\2014 — Pure Heroine (Japanese Edition)\08. Still Sane.wav<br>
<br>
Пиковый уровень 99.0 %<br>
Скорость извлечения 1.7 X<br>
Качество трека 100.0 %<br>
CRC теста 3BEE6E3B<br>
CRC копии 3BEE6E3B<br>
Точное извлечение (достоверность 9) [1D475949] (AR v2)<br>
Копирование... OK<br>
<br>
Трек 9<br>
<br>
Имя файла F:\Maxim\Music\ALAC\Lorde\2014 — Pure Heroine (Japanese Edition)\09. White Teeth Teens.wav<br>
<br>
Пиковый уровень 99.0 %<br>
Скорость извлечения 1.8 X<br>
Качество трека 100.0 %<br>
CRC теста 9E17C685<br>
CRC копии 9E17C685<br>
Точное извлечение (достоверность 9) [76895063] (AR v2)<br>
Копирование... OK<br>
<br>
Трек 10<br>
<br>
Имя файла F:\Maxim\Music\ALAC\Lorde\2014 — Pure Heroine (Japanese Edition)\10. A World Alone.wav<br>
<br>
Пиковый уровень 99.0 %<br>
Скорость извлечения 2.0 X<br>
Качество трека 100.0 %<br>
CRC теста 08A10462<br>
CRC копии 08A10462<br>
Точное извлечение (достоверность 9) [ABD051AA] (AR v2)<br>
Копирование... OK<br>
<br>
Трек 11<br>
<br>
Имя файла F:\Maxim\Music\ALAC\Lorde\2014 — Pure Heroine (Japanese Edition)\11. Bravado.wav<br>
<br>
Длина предзазора 0:00:03.10<br>
<br>
Пиковый уровень 99.0 %<br>
Скорость извлечения 2.0 X<br>
Качество трека 100.0 %<br>
CRC теста EB2FF3BB<br>
CRC копии EB2FF3BB<br>
Точное извлечение (достоверность 9) [A980D9D0] (AR v2)<br>
Копирование... OK<br>
<br>
Трек 12<br>
<br>
Имя файла F:\Maxim\Music\ALAC\Lorde\2014 — Pure Heroine (Japanese Edition)\12. Swingin Party.wav<br>
<br>
Длина предзазора 0:00:01.35<br>
<br>
Пиковый уровень 99.0 %<br>
Скорость извлечения 2.1 X<br>
Качество трека 100.0 %<br>
CRC теста 2E6AC1C4<br>
CRC копии 2E6AC1C4<br>
Точное извлечение (достоверность 9) [FC592FA8] (AR v2)<br>
Копирование... OK<br>
<br>
Трек 13<br>
<br>
Имя файла F:\Maxim\Music\ALAC\Lorde\2014 — Pure Heroine (Japanese Edition)\13. Bravado (Fffrrannno Remix).wav<br>
<br>
Длина предзазора 0:00:01.73<br>
<br>
Пиковый уровень 98.8 %<br>
Скорость извлечения 2.1 X<br>
Качество трека 100.0 %<br>
CRC теста F8B07816<br>
CRC копии F8B07816<br>
Точное извлечение (достоверность 9) [D5C05E32] (AR v2)<br>
Копирование... OK<br>
<br>
<br>
Все треки извлечены точно<br>
<br>
Ошибок не произошло<br>
<br>
Конец отчёта<br>
<br>
==== Контрольная сумма отчёта 8EBCF73F12C93566B15BF331A2EEE539EAEE14111D735DE959A844D292B14338 ====</div>
</div></span></span><br>
<span style="font-size: 12px"><span style="color: #000000">
<div class="ToggleTriggerAnchor bbCodeSpoilerContainer">
<button type="button" class="button bbCodeSpoilerButton ToggleTrigger Tooltip JsOnly" data-target="> .SpoilerTarget"><span>Spoiler: <span class="SpoilerTitle">Japanese Edition</span></span></button>
<div class="SpoilerTarget bbCodeSpoilerText">
<div class="bbCodeBlock bbCodeVfcHH HiddenContent">
<div class="attribution type">Hidden Content:</div>
<blockquote>You must reply before you can see the hidden data contained here.</blockquote>
</div></div>
</div><br>
================================================================================================<br>
</span></span></span><br>
<span style="font-family: 'Times New Roman'"><span style="font-size: 18px"><span style="color: rgb(0, 0, 0)">Pure Heroine | Vinyl Rip | EU Pressing | .FLAC 24bits ／ 96.0kHz</span></span></span><br>
<span style="font-family: 'Book Antiqua'"><span style="font-size: 18px"><span style="color: #000000"><br>
<img src="https://i.imgur.com/DVEoFnl.png" class="bbCodeImage LbImage" alt="[​IMG]" data-url="https://i.imgur.com/DVEoFnl.png" style=""> <br>
</span></span><br>
<span style="font-size: 12px"><span style="color: #000000">
<div class="ToggleTriggerAnchor bbCodeSpoilerContainer">
<button type="button" class="button bbCodeSpoilerButton ToggleTrigger Tooltip JsOnly" data-target="> .SpoilerTarget"><span>Spoiler: <span class="SpoilerTitle">LP</span></span></button>
<div class="SpoilerTarget bbCodeSpoilerText">
<div class="bbCodeBlock bbCodeVfcHH HiddenContent">
<div class="attribution type">Hidden Content:</div>
<blockquote>You must reply before you can see the hidden data contained here.</blockquote>
</div></div>
</div><br>
================================================================================================</span></span></span>​</div>
<div class="messageTextEndMarker">&nbsp;</div>
</blockquote>
</article>]]></description>
                <author><![CDATA[Sergiote12]]></author>
                </item>

                </channel></rss>